<mxfile host="app.diagrams.net" modified="2024-06-29T06:15:11.964Z" agent="Mozilla/5.0 (Macintosh; Intel Mac OS X 10.15; rv:127.0) Gecko/20100101 Firefox/127.0" etag="hi0ffU8bkQpZY6rMCGwM" version="24.5.5" type="dropbox">
  <diagram name="Page-1" id="ALxjp6_uH2wn0X92kFWS">
    <mxGraphModel dx="1370" dy="899" grid="1" gridSize="10" guides="1" tooltips="1" connect="1" arrows="1" fold="1" page="1" pageScale="1" pageWidth="1169" pageHeight="827" background="none" math="0" shadow="0">
      <root>
        <mxCell id="0" />
        <mxCell id="1" parent="0" />
        <mxCell id="T-EGLuceTleQ6SiZiBLL-18" value="" style="rounded=0;whiteSpace=wrap;html=1;fillColor=none;dashed=1;dashPattern=12 12;" vertex="1" parent="1">
          <mxGeometry x="475" y="100" width="660" height="610" as="geometry" />
        </mxCell>
        <mxCell id="T-EGLuceTleQ6SiZiBLL-19" value="" style="rounded=0;whiteSpace=wrap;html=1;glass=0;shadow=0;" vertex="1" parent="1">
          <mxGeometry x="560" y="180" width="490" height="450" as="geometry" />
        </mxCell>
        <mxCell id="T-EGLuceTleQ6SiZiBLL-20" value="&lt;div&gt;&lt;font style=&quot;font-size: 24px;&quot; face=&quot;Courier New&quot;&gt;&lt;b&gt;ui&lt;/b&gt;&lt;/font&gt;&lt;/div&gt;" style="rounded=1;whiteSpace=wrap;html=1;" vertex="1" parent="1">
          <mxGeometry x="705" y="240" width="200" height="70" as="geometry" />
        </mxCell>
        <mxCell id="T-EGLuceTleQ6SiZiBLL-21" value="&lt;div&gt;&lt;font style=&quot;font-size: 24px;&quot; face=&quot;Courier New&quot;&gt;&lt;b&gt;server&lt;/b&gt;&lt;/font&gt;&lt;/div&gt;" style="rounded=1;whiteSpace=wrap;html=1;" vertex="1" parent="1">
          <mxGeometry x="705" y="500" width="200" height="70" as="geometry" />
        </mxCell>
        <mxCell id="T-EGLuceTleQ6SiZiBLL-22" value="" style="endArrow=classic;html=1;exitX=0;exitY=0.5;exitDx=0;exitDy=0;entryX=0;entryY=0.5;entryDx=0;entryDy=0;rounded=0;curved=1;" edge="1" parent="1" source="T-EGLuceTleQ6SiZiBLL-21" target="T-EGLuceTleQ6SiZiBLL-20">
          <mxGeometry width="50" height="50" relative="1" as="geometry">
            <mxPoint x="550" y="470" as="sourcePoint" />
            <mxPoint x="600" y="420" as="targetPoint" />
            <Array as="points">
              <mxPoint x="630" y="530" />
              <mxPoint x="610" y="410" />
              <mxPoint x="630" y="280" />
            </Array>
          </mxGeometry>
        </mxCell>
        <mxCell id="T-EGLuceTleQ6SiZiBLL-24" value="&lt;font style=&quot;font-size: 24px;&quot; face=&quot;Courier New&quot;&gt;output&lt;/font&gt;" style="text;html=1;align=center;verticalAlign=middle;whiteSpace=wrap;rounded=0;fillColor=default;" vertex="1" parent="1">
          <mxGeometry x="570" y="385" width="110" height="40" as="geometry" />
        </mxCell>
        <mxCell id="T-EGLuceTleQ6SiZiBLL-27" value="" style="endArrow=classic;html=1;exitX=1;exitY=0.5;exitDx=0;exitDy=0;entryX=1;entryY=0.5;entryDx=0;entryDy=0;rounded=0;curved=1;" edge="1" parent="1" source="T-EGLuceTleQ6SiZiBLL-20" target="T-EGLuceTleQ6SiZiBLL-21">
          <mxGeometry width="50" height="50" relative="1" as="geometry">
            <mxPoint x="880" y="760" as="sourcePoint" />
            <mxPoint x="980" y="750" as="targetPoint" />
            <Array as="points">
              <mxPoint x="990" y="280" />
              <mxPoint x="1000" y="410" />
              <mxPoint x="990" y="530" />
            </Array>
          </mxGeometry>
        </mxCell>
        <mxCell id="T-EGLuceTleQ6SiZiBLL-30" value="&lt;font style=&quot;font-size: 24px;&quot; face=&quot;Courier New&quot;&gt;input&lt;/font&gt;" style="text;html=1;align=center;verticalAlign=middle;whiteSpace=wrap;rounded=0;fillColor=default;" vertex="1" parent="1">
          <mxGeometry x="944" y="385" width="105" height="40" as="geometry" />
        </mxCell>
        <mxCell id="T-EGLuceTleQ6SiZiBLL-32" value="&lt;font style=&quot;font-size: 24px;&quot;&gt;Client&lt;/font&gt;" style="rounded=0;whiteSpace=wrap;html=1;" vertex="1" parent="1">
          <mxGeometry x="120" y="336.25" width="150" height="137.5" as="geometry" />
        </mxCell>
        <mxCell id="T-EGLuceTleQ6SiZiBLL-33" value="&lt;font style=&quot;font-size: 24px;&quot;&gt;App&lt;/font&gt;" style="text;html=1;align=center;verticalAlign=middle;whiteSpace=wrap;rounded=0;" vertex="1" parent="1">
          <mxGeometry x="567" y="590" width="100" height="30" as="geometry" />
        </mxCell>
        <mxCell id="T-EGLuceTleQ6SiZiBLL-34" value="&lt;font style=&quot;font-size: 24px;&quot;&gt;Host&lt;br&gt;&lt;/font&gt;" style="text;html=1;align=center;verticalAlign=middle;whiteSpace=wrap;rounded=0;" vertex="1" parent="1">
          <mxGeometry x="480" y="670" width="95" height="30" as="geometry" />
        </mxCell>
        <mxCell id="T-EGLuceTleQ6SiZiBLL-37" value="" style="endArrow=classic;startArrow=classic;html=1;entryX=0;entryY=0.5;entryDx=0;entryDy=0;exitX=1;exitY=0.5;exitDx=0;exitDy=0;" edge="1" parent="1" source="T-EGLuceTleQ6SiZiBLL-32" target="T-EGLuceTleQ6SiZiBLL-19">
          <mxGeometry width="50" height="50" relative="1" as="geometry">
            <mxPoint x="240" y="414" as="sourcePoint" />
            <mxPoint x="400" y="414" as="targetPoint" />
          </mxGeometry>
        </mxCell>
      </root>
    </mxGraphModel>
  </diagram>
</mxfile>
